<svg xmlns="http://www.w3.org/2000/svg" width="300" height="600" viewBox="0 0 300 600">
  <defs>
    <linearGradient id="tbg" x1="0" y1="0" x2="0" y2="1">
      <stop offset="0" stop-color="#131C30"/><stop offset="1" stop-color="#0A0D14"/>
    </linearGradient>
    <radialGradient id="tglow" cx="0.5" cy="0.42" r="0.55">
      <stop offset="0" stop-color="#25D366" stop-opacity="0.22"/>
      <stop offset="1" stop-color="#25D366" stop-opacity="0"/>
    </radialGradient>
    <linearGradient id="tgold" x1="0" y1="0" x2="1" y2="0">
      <stop offset="0" stop-color="#F6D47A"/><stop offset="1" stop-color="#D9A441"/>
    </linearGradient>
  </defs>
  <rect width="300" height="600" rx="28" fill="url(#tbg)"/>
  <rect width="300" height="600" rx="28" fill="url(#tglow)"/>
  <rect x="7" y="7" width="286" height="586" rx="23" fill="none" stroke="#F2C14E" stroke-opacity="0.28" stroke-width="2"/>
  <circle cx="150" cy="250" r="55" fill="#25D366"/>
      <g transform="translate(118,218) scale(2.66)">
        <path fill="#fff" d="M6.62 10.79c1.44 2.83 3.76 5.14 6.59 6.59l2.2-2.2c.27-.27.67-.36 1.02-.24 1.12.37 2.33.57 3.57.57.55 0 1 .45 1 1V20c0 .55-.45 1-1 1-9.39 0-17-7.61-17-17 0-.55.45-1 1-1h3.5c.55 0 1 .45 1 1 0 1.25.2 2.45.57 3.57.11.35.03.74-.25 1.02l-2.2 2.2z"/>
      </g>
      <path d="M118 291 L112 308 L131 299 Z" fill="#25D366"/>
  <rect x="126" y="344" width="48" height="3.5" rx="1.75" fill="url(#tgold)"/>
  <text x="150" y="412" text-anchor="middle" font-family="Segoe UI, Arial, sans-serif" font-size="27" font-weight="600" letter-spacing="2.5" fill="#E9EDF6">WhatsApp</text>
</svg>
