<svg xmlns="http://www.w3.org/2000/svg" width="300" height="600" viewBox="0 0 300 600">
  <defs>
    <linearGradient id="tbg" x1="0" y1="0" x2="0" y2="1">
      <stop offset="0" stop-color="#131C30"/><stop offset="1" stop-color="#0A0D14"/>
    </linearGradient>
    <radialGradient id="tglow" cx="0.5" cy="0.42" r="0.55">
      <stop offset="0" stop-color="#00B2FF" stop-opacity="0.22"/>
      <stop offset="1" stop-color="#00B2FF" stop-opacity="0"/>
    </radialGradient>
    <linearGradient id="tgold" x1="0" y1="0" x2="1" y2="0">
      <stop offset="0" stop-color="#F6D47A"/><stop offset="1" stop-color="#D9A441"/>
    </linearGradient>
  </defs>
  <rect width="300" height="600" rx="28" fill="url(#tbg)"/>
  <rect width="300" height="600" rx="28" fill="url(#tglow)"/>
  <rect x="7" y="7" width="286" height="586" rx="23" fill="none" stroke="#F2C14E" stroke-opacity="0.28" stroke-width="2"/>
  <svg x="95" y="195" width="110" height="110" viewBox="0 0 24 24"><defs><linearGradient id="ms" x1="0" y1="0" x2="1" y2="1"><stop offset="0" stop-color="#00B2FF"/><stop offset="1" stop-color="#A033FF"/></linearGradient></defs>
      <circle cx="12" cy="12" r="11" fill="url(#ms)"/>
      <path fill="#fff" d="M12 5.1c-3.9 0-7 2.8-7 6.3 0 1.9.9 3.6 2.4 4.8V19l2.3-1.2c.7.2 1.5.3 2.3.3 3.9 0 7-2.9 7-6.4S15.9 5.1 12 5.1Zm.8 9.6-2-2.2-3.7 2 4.1-4.3 2 2.2 3.7-2-4.1 4.3Z"/></svg>
  <rect x="126" y="344" width="48" height="3.5" rx="1.75" fill="url(#tgold)"/>
  <text x="150" y="412" text-anchor="middle" font-family="Segoe UI, Arial, sans-serif" font-size="27" font-weight="600" letter-spacing="2.5" fill="#E9EDF6">Messenger</text>
</svg>
